<?xml version="1.0" encoding="UTF-8"?>
<svg xmlns="http://www.w3.org/2000/svg" width="300px" height="300px" viewBox="0 0 32 32" fill="none">
  <path d="M1.70849 21.8563H0.105763C0.0406782 21.8563 0 21.8889 0 21.9621V27.0903C0 27.1581 0.0406782 27.196 0.105763 27.196H1.70849C2.33493 27.196 2.67663 26.8625 2.67663 26.2333V25.0048C2.67663 24.758 2.49764 24.5709 2.25628 24.5302V24.5167C2.49764 24.476 2.67663 24.2889 2.67663 24.0421V22.8136C2.67663 22.1899 2.33764 21.8563 1.70849 21.8563ZM1.78984 26.0489C1.78984 26.2279 1.69764 26.3147 1.52408 26.3147H0.913904V24.9669H1.52137C1.70035 24.9669 1.78713 25.0591 1.78713 25.2353V26.0489H1.78984ZM1.78984 23.8251C1.78984 23.9933 1.69764 24.0855 1.52408 24.0855H0.913904V22.7377H1.52137C1.70035 22.7377 1.78713 22.8299 1.78713 23.0034V23.8251H1.78984Z" fill="#D9664C"></path>
  <path d="M5.1279 21.8563H3.45195C3.38416 21.8563 3.34619 21.897 3.34619 21.9621V27.0903C3.34619 27.1581 3.38687 27.196 3.45195 27.196H4.1462C4.21399 27.196 4.25196 27.1553 4.25196 27.0903V25.4089H4.71298L5.16044 27.1038C5.174 27.1635 5.20654 27.196 5.27434 27.196H5.96858C6.0418 27.196 6.08248 27.1553 6.06079 27.0767L5.59977 25.3275C5.91977 25.1865 6.08791 24.8936 6.08791 24.4462V22.8163C6.09062 22.1899 5.75706 21.8563 5.1279 21.8563ZM5.18214 24.2591C5.18214 24.4326 5.08993 24.5248 4.91366 24.5248H4.25196V22.735H4.91366C5.08722 22.735 5.18214 22.8272 5.18214 23.0007V24.2591Z" fill="#D9664C"></path>
  <path d="M8.76192 21.9485C8.74836 21.8807 8.70768 21.8563 8.64802 21.8563H7.72056C7.6609 21.8563 7.62022 21.8834 7.60666 21.9485L6.4975 27.0848C6.47852 27.1581 6.51106 27.1987 6.58428 27.1987H7.29751C7.35717 27.1987 7.38971 27.1662 7.40327 27.1065L7.58225 26.1302H8.77006L8.95718 27.1065C8.97074 27.1662 9.00328 27.1987 9.06294 27.1987H9.77074C9.8521 27.1987 9.8765 27.1581 9.86295 27.0848L8.76192 21.9485ZM7.7531 25.3547L8.18158 23.0251L8.61006 25.3547H7.7531Z" fill="#D9664C"></path>
  <path d="M13.147 21.8563H12.4527C12.3795 21.8563 12.347 21.897 12.347 21.9621V24.7797H12.3063L11.2921 21.9404C11.2731 21.8807 11.2324 21.8536 11.1727 21.8536H10.511C10.4432 21.8536 10.4053 21.8943 10.4053 21.9594V27.0902C10.4053 27.158 10.446 27.196 10.511 27.196H11.2053C11.2785 27.196 11.311 27.1553 11.311 27.0902V24.259H11.3436L12.366 27.1092C12.3849 27.1689 12.4256 27.196 12.4853 27.196H13.147C13.2148 27.196 13.2527 27.1553 13.2527 27.0902V21.9621C13.2555 21.8943 13.2148 21.8563 13.147 21.8563Z" fill="#D9664C"></path>
  <path d="M15.639 21.8563H14.8905C14.2641 21.8563 13.9224 22.1899 13.9224 22.819V26.2387C13.9224 26.8652 14.2641 27.2014 14.8905 27.2014H15.639C16.26 27.2014 16.6017 26.8679 16.6017 26.2387V25.5174C16.6017 25.4496 16.561 25.4116 16.4959 25.4116H15.8288C15.7556 25.4116 15.7231 25.4523 15.7231 25.5174V26.0516C15.7231 26.2306 15.6308 26.3174 15.4573 26.3174H15.1047C14.9312 26.3174 14.839 26.2306 14.839 26.0516V23.0034C14.839 22.8299 14.9258 22.7377 15.1047 22.7377H15.4519C15.6254 22.7377 15.7176 22.8299 15.7176 23.0034V23.5377C15.7176 23.6055 15.7502 23.6435 15.8234 23.6435H16.4905C16.5583 23.6435 16.5963 23.6028 16.5963 23.5377V22.8163C16.599 22.1899 16.26 21.8563 15.639 21.8563Z" fill="#D9664C"></path>
  <path d="M19.8263 21.8563H19.1375C19.0697 21.8563 19.0318 21.897 19.0318 21.9621V24.0855H18.1775V21.9621C18.1775 21.8943 18.1368 21.8563 18.0718 21.8563H17.3829C17.3016 21.8563 17.269 21.897 17.269 21.9621V27.0903C17.269 27.1581 17.3016 27.196 17.3829 27.196H18.0718C18.1396 27.196 18.1775 27.1553 18.1775 27.0903V24.9669H19.0318V27.0903C19.0318 27.1581 19.0724 27.196 19.1375 27.196H19.8263C19.9077 27.196 19.9402 27.1553 19.9402 27.0903V21.9621C19.9402 21.8943 19.905 21.8563 19.8263 21.8563Z" fill="#D9664C"></path>
  <path d="M23.3955 21.8563H22.647C22.0206 21.8563 21.6843 22.1899 21.6843 22.819V26.2387C21.6843 26.8652 22.0179 27.2014 22.647 27.2014H23.3955C24.022 27.2014 24.3582 26.8679 24.3582 26.2387V22.8163C24.3582 22.1899 24.0247 21.8563 23.3955 21.8563ZM23.4959 26.0679C23.4959 26.2469 23.4037 26.3336 23.2301 26.3336H22.8423C22.6687 26.3336 22.5738 26.2469 22.5738 26.0679V22.9845C22.5738 22.8109 22.666 22.7187 22.8423 22.7187H23.2301C23.4037 22.7187 23.4959 22.8109 23.4959 22.9845V26.0679Z" fill="#D9664C"></path>
  <path d="M27.5634 21.8563H26.9478C26.8746 21.8563 26.8149 21.916 26.8149 21.9892V26.0489C26.8149 26.2279 26.7227 26.3147 26.5492 26.3147H26.2021C26.0285 26.3147 25.9363 26.2279 25.9363 26.0489V21.9892C25.9363 21.916 25.8766 21.8563 25.8034 21.8563H25.1634C25.0902 21.8563 25.0305 21.916 25.0305 21.9892V26.236C25.0305 26.8625 25.3641 27.1987 25.9932 27.1987H26.7417C27.3682 27.1987 27.7044 26.8652 27.7044 26.236V21.9892C27.6963 21.916 27.6366 21.8563 27.5634 21.8563Z" fill="#D9664C"></path>
  <path d="M30.9016 22.6292V21.9621C30.9016 21.8943 30.8691 21.8563 30.7959 21.8563H28.3389C28.2711 21.8563 28.2332 21.897 28.2332 21.9621V22.6292C28.2332 22.697 28.2738 22.735 28.3389 22.735H29.1145V27.0903C29.1145 27.1635 29.1552 27.196 29.2203 27.196H29.9145C29.9877 27.196 30.0203 27.1635 30.0203 27.0903V22.7377H30.7959C30.8691 22.7377 30.9016 22.697 30.9016 22.6292Z" fill="#D9664C"></path>
  <path d="M31.7994 26.0407C31.6665 25.9106 31.5011 25.8455 31.3031 25.8455C31.1052 25.8455 30.9425 25.9106 30.8069 26.0407C30.674 26.1709 30.6062 26.3309 30.6062 26.5207C30.6062 26.7106 30.674 26.8706 30.8069 27.0007C30.9398 27.1309 31.1052 27.196 31.3031 27.196C31.5011 27.196 31.6638 27.1309 31.7994 27.0007C31.9323 26.8706 32.0001 26.7106 32.0001 26.5207C32.0001 26.3309 31.9323 26.1709 31.7994 26.0407ZM31.6909 26.9058C31.5852 27.0116 31.455 27.0658 31.3059 27.0658C31.1567 27.0658 31.0265 27.0116 30.9208 26.9058C30.815 26.8001 30.7608 26.6699 30.7608 26.5207C30.7608 26.3689 30.815 26.2414 30.9208 26.1357C31.0265 26.0299 31.1567 25.9757 31.3059 25.9757C31.455 25.9757 31.5852 26.0299 31.6909 26.1357C31.7967 26.2414 31.8509 26.3716 31.8509 26.5207C31.8509 26.6726 31.7967 26.8001 31.6909 26.9058Z" fill="#D9664C"></path>
  <path d="M31.4878 26.5614C31.5095 26.5506 31.5312 26.5316 31.5529 26.5018C31.5746 26.4719 31.5854 26.4367 31.5854 26.3987C31.5854 26.3363 31.5637 26.2848 31.5176 26.2387C31.4715 26.1953 31.4173 26.1709 31.3522 26.1709H31.0593V26.8679H31.2003V26.6048H31.3224L31.4634 26.8679H31.6153L31.4553 26.5777L31.4878 26.5614ZM31.42 26.4502C31.4037 26.4665 31.3793 26.4746 31.3522 26.4746H31.2003V26.3065H31.3522C31.3793 26.3065 31.401 26.3146 31.42 26.3309C31.4363 26.3472 31.4471 26.3662 31.4471 26.3906C31.4471 26.4123 31.4363 26.434 31.42 26.4502Z" fill="#D9664C"></path>
  <path d="M29.2858 20.2671H30.4682C30.7313 20.2671 30.9428 20.0502 30.9346 19.7871C30.8777 17.8698 30.4709 16.0068 29.7251 14.2468C28.9468 12.4054 27.8295 10.7511 26.4112 9.33012C24.9929 7.9091 23.336 6.79451 21.4946 6.01349C19.5881 5.20806 17.5624 4.79857 15.4742 4.79857C13.3861 4.79857 11.3603 5.20806 9.45383 6.01349C7.61247 6.7918 5.95822 7.9091 4.53719 9.32741C3.11617 10.7457 2.00158 12.4027 1.22056 14.2468C0.444965 16.08 0.0381825 18.0244 0.00835179 20.0285C0.00563991 20.1587 0.111403 20.2644 0.241574 20.2644H1.43209C1.55955 20.2644 1.6626 20.1641 1.66531 20.0366C1.69514 18.2522 2.05853 16.522 2.74735 14.8868C3.44431 13.2434 4.43957 11.7654 5.70873 10.4962C6.97789 9.22707 8.45586 8.23181 10.0993 7.53486C11.8023 6.8135 13.6111 6.4501 15.4742 6.4501C17.3373 6.4501 19.1488 6.81621 20.8492 7.53486C22.4926 8.23181 23.9705 9.22707 25.2397 10.4962C26.5089 11.7654 27.5041 13.2434 28.2011 14.8868C28.814 16.3376 29.1692 17.8644 29.2614 19.4373L27.6804 17.162L25.7278 14.3525C25.6383 14.2224 25.4105 14.2224 25.321 14.3525L23.3685 17.162L23.3034 17.257L22.3597 15.8983L19.5285 11.8278C19.439 11.6976 19.2112 11.6976 19.1217 11.8278L16.2932 15.901L15.4851 17.0617L14.224 15.2474C14.1318 15.1146 13.9339 15.1146 13.8417 15.2474L12.1928 17.6176L10.5576 19.9688C10.4681 20.099 10.5793 20.2617 10.761 20.2617H13.6627H14.0315H17.302H19.3251H21.6193H24.9848H25.5217H29.2858V20.2671Z" fill="#D9664C"></path>
</svg>
